<svg width="378" height="98" viewBox="0 0 378 98" fill="none" xmlns="http://www.w3.org/2000/svg">
<path d="M202.897 26.7429H164.26V35.4534H178.632V70.6067H188.587V35.4534H202.897V26.7429ZM377.843 58.5362C377.843 49.3903 365.461 45.906 357.373 43.1682C350.343 40.8039 349.285 40.0573 349.285 38.0661C349.285 35.8265 352.085 34.8308 356.565 34.8308C361.977 34.8308 366.084 36.3243 366.084 41.6748H376.039C376.039 32.9639 370.004 26.12 356.564 26.12C345.24 26.12 339.33 30.2265 339.33 37.693C339.33 46.2791 346.858 48.7678 356.128 51.8787C362.537 54.0563 367.888 55.487 367.888 58.6602C367.888 61.0246 365.773 62.518 359.364 62.518C350.653 62.518 347.293 60.4024 347.293 53.6828H337.339C337.339 64.7576 343.249 71.2285 359.052 71.2285C372.554 71.2285 377.843 66.064 377.843 58.5359L377.843 58.5362ZM285.398 26.7425H299.957L318.312 42.2973V26.7425H328.266V70.6067H318.312V55.1139L299.957 70.6067H285.398L311.841 48.7058L285.398 26.7425ZM279.799 35.4534V26.7429H249.934V35.4534H259.889V61.8966H249.934V70.6071H279.799V61.8966H269.844V35.4534H279.799ZM207.253 70.6067H217.207V55.1763H234.38V70.6067H244.334V56.6077C244.334 53.1858 242.468 51.3189 239.046 51.3189H232.637V48.8302C237.926 48.2084 243.774 46.2171 243.774 39.0001C243.774 29.1696 234.691 26.7429 224.238 26.7429H207.252V70.6067H207.253ZM217.207 46.4662V35.4534H224.238C230.149 35.4534 233.82 35.4534 233.82 40.9906C233.82 46.4658 230.149 46.4658 224.238 46.4658H217.207V46.4662Z" fill="black"/>
<path fill-rule="evenodd" clip-rule="evenodd" d="M18.1482 0L0 84.0527L13.2974 97.3497H29.6626L38.1901 65.8799L57.2727 72.8403V27.8724H29.9117V0L18.1482 0ZM123.072 0L138.167 84.0527L124.869 97.3497H108.504L103.031 65.8799L83.9483 72.8403V27.8724H111.31V0H123.073L123.072 0Z" fill="black"/>
</svg>
